
<svg width="50px" height="50px" viewBox="0 0 40 41" version="1.1" xmlns="http://www.w3.org/2000/svg" xmlns:xlink="http://www.w3.org/1999/xlink">
    <!-- Generator: Sketch 43.1 (39012) - http://www.bohemiancoding.com/sketch -->
    <desc>Created with Sketch.</desc>
    <defs></defs>
    <g id="Welcome" stroke="none" stroke-width="1" fill="none" fill-rule="evenodd">
        <g id="Desktop" transform="translate(-492.000000, -1921.000000)" fill="#FFFFFF">
            <g id="Website" transform="translate(-17.000000, -1.000000)">
                <g id="Video" transform="translate(17.000000, 1814.000000)">
                    <path d="M512,144.232 C514.880014,144.232 517.567988,143.496007 520.064,142.024 C522.496012,140.615993 524.415993,138.696012 525.824,136.264 C527.296007,133.767988 528.032,131.080014 528.032,128.2 C528.032,125.319986 527.296007,122.632012 525.824,120.136 C524.415993,117.703988 522.496012,115.784007 520.064,114.376 C517.567988,112.903993 514.880014,112.168 512,112.168 C509.119986,112.168 506.432012,112.903993 503.936,114.376 C501.503988,115.784007 499.584007,117.703988 498.176,120.136 C496.703993,122.632012 495.968,125.319986 495.968,128.2 C495.968,131.080014 496.703993,133.767988 498.176,136.264 C499.584007,138.696012 501.503988,140.615993 503.936,142.024 C506.432012,143.496007 509.119986,144.232 512,144.232 Z M512,108.232 C515.648018,108.232 519.023984,109.143991 522.128,110.968 C525.136015,112.696009 527.503991,115.063985 529.232,118.072 C531.056009,121.176016 531.968,124.551982 531.968,128.2 C531.968,131.848018 531.056009,135.223984 529.232,138.328 C527.503991,141.336015 525.136015,143.703991 522.128,145.432 C519.023984,147.256009 515.648018,148.168 512,148.168 C508.351982,148.168 504.976016,147.256009 501.872,145.432 C498.863985,143.671991 496.496009,141.288015 494.768,138.28 C492.943991,135.175984 492.032,131.816018 492.032,128.2 C492.032,124.583982 492.943991,121.224016 494.768,118.12 C496.528009,115.111985 498.911985,112.728009 501.92,110.968 C505.024016,109.143991 508.383982,108.232 512,108.232 Z M507.968,137.176 L507.968,119.176 L519.968,128.2 L507.968,137.176 Z" id=""></path>
                </g>
            </g>
        </g>
    </g>
</svg>