<!--Scalable Vector Graphic-->
<svg width="56px" height="56px" viewBox="0 0 46 46" version="1.1" xmlns="http://www.w3.org/2000/svg" xmlns:xlink="http://www.w3.org/1999/xlink">
    <defs>
        <ellipse id="path-1" cx="19" cy="19" rx="19" ry="19" onclick="top.notify(evt)"></ellipse>
        <filter x="-18.4%" y="-13.2%" width="136.8%" height="136.8%" filterUnits="objectBoundingBox" id="filter-2">
            <feOffset dx="0" dy="2" in="SourceAlpha" result="shadowOffsetOuter1"></feOffset>
            <feGaussianBlur stdDeviation="2" in="shadowOffsetOuter1" result="shadowBlurOuter1"></feGaussianBlur>
            <feColorMatrix values="0 0 0 0 0   0 0 0 0 0   0 0 0 0 0  0 0 0 0.140143795 0" type="matrix" in="shadowBlurOuter1"></feColorMatrix>
        </filter>
    </defs>
    <g id="Symbols" stroke="none" stroke-width="1" fill="none" fill-rule="evenodd">
        <g id="Elements/Buttons/Scroll-Indicator" transform="translate(4.000000, 2.000000)">
            <g id="Scroll">
                <g id="Oval-2">
                    <use fill="black" fill-opacity="1" filter="url(#filter-2)" xlink:href="#path-1"></use>
                    <use fill="#FFFFFF" fill-rule="evenodd" xlink:href="#path-1"></use>
                </g>
                <path d="M13.1015625,19.3037109 C13.1015625,19.2529294 13.1121418,19.2000328 13.1333008,19.1450195 C13.1544597,19.0900062 13.1861977,19.0413414 13.2285156,18.9990234 C13.3131515,18.9228512 13.4147129,18.8847656 13.5332031,18.8847656 C13.6516933,18.8847656 13.7532548,18.9228512 13.8378906,18.9990234 L19.5761719,24.7373047 L25.2255859,19.0878906 C25.3102218,19.0032548 25.4117833,18.9609375 25.5302734,18.9609375 C25.6487636,18.9609375 25.7503251,19.0032548 25.8349609,19.0878906 C25.9195968,19.1725265 25.9619141,19.2740879 25.9619141,19.3925781 C25.9619141,19.5110683 25.9195968,19.6126298 25.8349609,19.6972656 L19.8808594,25.6513672 C19.7962235,25.736003 19.6946621,25.7783203 19.5761719,25.7783203 C19.4576817,25.7783203 19.3561202,25.736003 19.2714844,25.6513672 L13.2285156,19.6210938 C13.1861977,19.5787758 13.1544597,19.530111 13.1333008,19.4750977 C13.1121418,19.4200844 13.1015625,19.362956 13.1015625,19.3037109 Z" id="Arrow-down---simple-line-icons" stroke="#49CDB0" fill="#49CDB0"></path>
                <path d="M13.1015625,14.3037109 C13.1015625,14.2529294 13.1121418,14.2000328 13.1333008,14.1450195 C13.1544597,14.0900062 13.1861977,14.0413414 13.2285156,13.9990234 C13.3131515,13.9228512 13.4147129,13.8847656 13.5332031,13.8847656 C13.6516933,13.8847656 13.7532548,13.9228512 13.8378906,13.9990234 L19.5761719,19.7373047 L25.2255859,14.0878906 C25.3102218,14.0032548 25.4117833,13.9609375 25.5302734,13.9609375 C25.6487636,13.9609375 25.7503251,14.0032548 25.8349609,14.0878906 C25.9195968,14.1725265 25.9619141,14.2740879 25.9619141,14.3925781 C25.9619141,14.5110683 25.9195968,14.6126298 25.8349609,14.6972656 L19.8808594,20.6513672 C19.7962235,20.736003 19.6946621,20.7783203 19.5761719,20.7783203 C19.4576817,20.7783203 19.3561202,20.736003 19.2714844,20.6513672 L13.2285156,14.6210938 C13.1861977,14.5787758 13.1544597,14.530111 13.1333008,14.4750977 C13.1121418,14.4200844 13.1015625,14.362956 13.1015625,14.3037109 Z" id="Arrow-down---simple-line-icons-Copy" stroke="#49CDB0" fill="#49CDB0"></path>
            </g>
        </g>
    </g>
</svg>